<svg xmlns="http://www.w3.org/2000/svg" viewBox="0 0 121.7 143.55"><defs><style>.a{fill:#537f28;}.b{fill:#4a6b25;}.c{fill:#40591f;}.d{fill:#394c1b;}.e{fill:#70a532;}.f{fill:#87c13a;}.g{fill:#a2dd45;}.h{fill:#28331c;}</style></defs><path class="a" d="M160,76.09c.54-2.45-.38-4.73-1.66-7.26-1.51-3-2.59-6.71-6-8.09s-7.7-.44-11.21-.66a18.61,18.61,0,0,1-1.9-.24,2.87,2.87,0,0,0-.08-.38c4.35-3.28,8.2-8,11.62-11.72,3.57-3.85,13.16-11.07,6.32-16.4a8.1,8.1,0,0,0-8.83-.41c-2.55,1.46-3.56,4.38-5.26,6.61-2.2,2.87-4.92,5.35-7.14,8.21-3,3.91-6.6,5.64-11.17,7.41a3.54,3.54,0,0,0-1,.62,10.67,10.67,0,0,0-3.88-1.45,59.63,59.63,0,0,0-11.07-1.76A51.54,51.54,0,0,0,87,54.86C80.18,58,72.41,61,66.6,65.85a48.85,48.85,0,0,0-6.92,7.38,27.41,27.41,0,0,0-2,2.93,25.29,25.29,0,0,0-3.35,3.54,12.6,12.6,0,0,0-2.38,4.39,7.22,7.22,0,0,0-.25,1.21c-.18,1-.39,2-.53,3.07-.24,1.85-.23,4.34-1.09,6s-2.91,3.07-4,4.84a20,20,0,0,0-2.19,12.58,2.13,2.13,0,0,0,.45.93,43.15,43.15,0,0,0-.15,7.48,37,37,0,0,0,2,12.77c1.17,3.35,2.65,6.5,2.82,10.09s-.28,7.38.15,11c-1.46,2.79-2.67,5.73-2.44,8.85a12,12,0,0,0,.33,1.84,7,7,0,0,0,.45,1.78c1.07,1.58,2.22,2.4,4.26,2.12,5.35-.73,8.58-6.86,11.91-10.26,1.93-2,4.16-2.87,5.67-5.3,1.14-1.82,2.47-4,3.49-6,1.61-3.17,2.88-7.59,6.11-9.49,3.61-2.12,7.43-2.22,11.43-2.74,2.13-.28,5-.45,6.86-1.6s2.34-3.44,3.54-5.23c3.21-4.78,12.2-5.84,17.35-7,2.79-.63,6.31-1.33,9.09-2.87,3.85,0,8.37-3.22,11.24-4.51,5.21-2.34,10.67-7,12-12.85a7,7,0,0,0,.07-1.81,9.29,9.29,0,0,0,1.8-1.31c1.37-1.55,1.42-3.82,2.51-5.48s3.36-2.89,4.42-5.49C160.91,82.68,161.39,80.11,160,76.09Z" transform="translate(-41.49 -27.38)"/><path class="b" d="M89.43,125a2.73,2.73,0,0,0-.23-1.26c-1.22-2.91-4.32-1.14-5.48.69a1.72,1.72,0,0,0-.27,1,3.76,3.76,0,0,0-3.68,2.63,2.77,2.77,0,0,0,0,1.31l-.29.28a4.77,4.77,0,0,0-1.63,3.12,1.76,1.76,0,0,0,2.62,1.5,11.38,11.38,0,0,0,2.9-2.27,5.74,5.74,0,0,0,2.73-.06c2-.5,4.34-1.17,5-3.44A2.81,2.81,0,0,0,89.43,125Z" transform="translate(-41.49 -27.38)"/><path class="b" d="M75.57,137.07a2.47,2.47,0,0,0-.86.84,1.25,1.25,0,0,0-1.55-1.22c-3,.76-6.43,2.06-8.62,4.42-2.58,2.78-3.84,6.78-6.43,9.64-.93,1-1.81,2.06-2.67,3.12l-1.1.8c0-.3,0-.54,0-.57,0-.84,0-1.7,0-2.54a.64.64,0,0,0-1-.53,1.61,1.61,0,0,0-.82-1.53.56.56,0,0,0,.07-.18c.49-1.64,1.49-2.9,1.76-4.64.18-1.23-.26-2.38-.17-3.52a7,7,0,0,0,.36-2,3,3,0,0,0-1.31-2.31A11.78,11.78,0,0,0,50.88,132a1,1,0,0,0-1.7.45c-.58,2.17.25,4.47.3,6.63a13.87,13.87,0,0,0-.41,2.76,1.92,1.92,0,0,0,1.55,1.89c-.13,1.77-1.21,3.35-1.25,5.16a1.43,1.43,0,0,0,.58,1.25c-1.88,2.11-1.56,6-1.72,8.58s-1.49,5.36.12,7.56a3,3,0,0,0,3.16,1.28c2.94-.55,5.12-2.85,7-5.33a1.57,1.57,0,0,0,1.39-.66c1.84-2.29,5.09-5.41,6.17-8.71.67-1,1.38-2,2.12-3,.87-1.17,1.9-2.08,2.34-3.49a1,1,0,0,0-1.26-1.26,6.18,6.18,0,0,0-1.83.88,6.76,6.76,0,0,1,.41-2c.93-1.79,3.77-3.52,5.69-4.64-.24.4.31.91.64.53a14.2,14.2,0,0,0,1.81-2.3C76.06,137.33,75.86,137,75.57,137.07Z" transform="translate(-41.49 -27.38)"/><path class="b" d="M119.41,53.66l-.32-.06a2.59,2.59,0,0,0,.25-3.72c-1.19-1.19-3.79-.8-4.09,1.08l-.06.41a2.12,2.12,0,0,0,0,.24h0c0,.32-1.81,1.19-3,1.78-3.3-2.3-8.34-.54-12-.43a45.79,45.79,0,0,0-16.47,3c-4.79,1.86-9.86,3.5-13.75,7-1.74,1.59-3,3.76-4.64,5.51a34,34,0,0,0-3.77,4.68,18.15,18.15,0,0,0-2.33,1.5,10.08,10.08,0,0,0-2,2.21c-2.74,1.07-3.67,3.59-4.86,6.36-.86,2-2.44,5-.56,6.87-.05.23-.09.46-.14.69a.24.24,0,0,0,0,.08c0,.22-.09.44-.13.65a19.12,19.12,0,0,1-1.21,3.89A45.44,45.44,0,0,0,48.11,100c-.36,1.12-.6,2.25-.92,3.34-1.09.72-1.77,2.52-2.09,3.89a1.72,1.72,0,0,0-.26,1.9,40.46,40.46,0,0,0,.19,7.31,31,31,0,0,0,.59,9.51c.71,3.27,5.15,2.18,5.44-.73.62-6.26-1.71-13.28-.39-19a2.07,2.07,0,0,0,.07-.41c.8-1.51,1.43-3.11,2.12-4.72a12.83,12.83,0,0,0,.82-1.8.49.49,0,0,1,0-.11c.14-.31.26-.63.37-.95A20.09,20.09,0,0,0,55.61,94a11.44,11.44,0,0,0-.1-2.47c0-.16.07-.31.1-.46a16.2,16.2,0,0,0,1.5-1.48l0,0a9.2,9.2,0,0,0,1.54-1.79,1.53,1.53,0,0,0,1.91,1.33,32.74,32.74,0,0,0,7.07-2.64,34.62,34.62,0,0,0,6.58-3.3c1-.7,3.84-2.39,3.84-3.78a2.38,2.38,0,0,0-.82-1.43c-.13-.91-1.25-1-1.85-.49-1.79-.76-4.15.17-6.15,1.1A10.05,10.05,0,0,0,70,77.8c1.22-1.36,2.37-2.79,3.54-4.2.7-.83,1.45-1.6,2.15-2.43.34-.4.67-.81,1-1.22.27-.22.42-.4.44-.55a1.19,1.19,0,0,0,.28.1c-.82,1.15.66,3.2,2.05,2.21,5.37-3.86,10.84-7.65,16.12-11.62,3.24-2.44,7.24-3.21,11.37-3.52-.49.3-1,.59-1.52.86-1.72.87-.2,3.46,1.52,2.59,2.09-1.06,3.88-2.54,5.87-3.7,1.38,0,2.73-.11,4-.22a1.39,1.39,0,0,0,.68,0c.64-.1,1.27-.22,1.9-.36A1.11,1.11,0,0,0,119.41,53.66ZM86.59,62a29.28,29.28,0,0,1-7.09,6.14,1.79,1.79,0,0,0-.4-1.71,2.91,2.91,0,0,0-2.82-1.21,52.8,52.8,0,0,1,8-3.21l3.4-1.22C87.3,61.22,86.93,61.62,86.59,62Z" transform="translate(-41.49 -27.38)"/><path class="b" d="M96.16,62c-3.74,0-6.84,2.75-9.32,5.22a1.16,1.16,0,0,0,1.64,1.64,11.69,11.69,0,0,1,4.38-2.81c1.41-.51,3.16-.78,4.15-2A1.22,1.22,0,0,0,96.16,62Z" transform="translate(-41.49 -27.38)"/><path class="b" d="M141.16,87.47c-1.16,0-.81,2,.38,1.4C142.21,88.56,141.89,87.47,141.16,87.47Z" transform="translate(-41.49 -27.38)"/><path class="b" d="M140.16,90.8a28.73,28.73,0,0,0-2.31,3c-.71,1.27-1.4,2.56-2.2,3.77-1.33,2-4,3.87-4.66,6.27a.87.87,0,0,0,.84,1.09c2.75,0,3.39-3.42,4.65-5.32,1-1.53,2.36-2.74,3.5-4.16.87-1.08,1.39-2.34,2.18-3.46S141,89.63,140.16,90.8Z" transform="translate(-41.49 -27.38)"/><path class="b" d="M126.83,107.29c-.71.24-1.38.65-2.08.88a7.47,7.47,0,0,1-3.26,0c-1.21-.13-2.44-.2-3.66-.31-1-.08-1.21,1.12-.72,1.72,1.12,1.36,2.61,1.24,4.13.62a21.72,21.72,0,0,1,2.76-1.16c1-.27,2.11-.3,3.16-.57C127.94,108.29,127.59,107,126.83,107.29Z" transform="translate(-41.49 -27.38)"/><path class="b" d="M113.8,101.88a11.43,11.43,0,0,1-1-4.06,5.46,5.46,0,0,0-.42-2.21,7,7,0,0,1-.59-3.72,4,4,0,0,0-.46-3,1.47,1.47,0,0,0-1.71-.58,1.05,1.05,0,0,0-.24-.62,10.34,10.34,0,0,1-1.47-5.29,11.32,11.32,0,0,1,2.22-2l-.08,0a1.9,1.9,0,0,0-.89-3.57c-4.51-.14-15.93,9-11.32,14.09,2,2.26,4.17-1.58,5.06-3a17,17,0,0,1,3-3.54c0,.14,0,.29,0,.42a6.88,6.88,0,0,0,2,4.33.86.86,0,0,0,.74.34,7.59,7.59,0,0,0,0,5.79,6.14,6.14,0,0,0,1.61,2.07c1.48,1.42,1.58,3,2.26,4.92C112.81,103.05,114.12,102.67,113.8,101.88Z" transform="translate(-41.49 -27.38)"/><path class="b" d="M101.1,95.63c-.1-.25-.2-.51-.29-.77a1.36,1.36,0,1,0-2.49,1c.12.25.25.49.38.74a1.33,1.33,0,0,0,1.48.6,1.23,1.23,0,0,0,.58-.34A1.27,1.27,0,0,0,101.1,95.63Z" transform="translate(-41.49 -27.38)"/><path class="b" d="M100.83,99.52a.38.38,0,0,0,0,.75A.38.38,0,0,0,100.83,99.52Z" transform="translate(-41.49 -27.38)"/><path class="c" d="M117.53,53.85C116,51,113,51.76,110.16,51.63c-3-.14-6.27-.8-9.27,0a34.47,34.47,0,0,0-8,.43c-1.89.29-4.22.49-6,1.46-2.32.37-4.65,1.44-5.62,3.1h-.16c-2.7.3-5.16,2.08-7.41,3.91-.45.21-.9.43-1.38.68-1.85.95-6.2,2.55-6.57,5.05a9.27,9.27,0,0,0-2.54,3.65,26.23,26.23,0,0,0-2.44,2.78,2.15,2.15,0,0,0-1,.58,51.31,51.31,0,0,0-4.63,5.11,10.92,10.92,0,0,0-3.71,5.16,21.17,21.17,0,0,0-1.27,5.07,15.63,15.63,0,0,1-2.23,6.26,1.32,1.32,0,0,0,.71,1.84,15.65,15.65,0,0,0-.28,2.52c-.05.11-.11.21-.16.32a1.78,1.78,0,0,0-.74.47c-4.13,4.24-4.69,10.48-2.81,15.84a1.26,1.26,0,0,0,2.4,0c1.4-4,.84-8.58,2.55-12.52l.61-1.2a1.81,1.81,0,0,0-.07-1.74,5.48,5.48,0,0,1,.31-1,1.06,1.06,0,0,0,.07-.62c.32-1.35.61-2.69,1-4a1,1,0,0,0-.37-1,33.89,33.89,0,0,0,1.58-3.93c.43-1.35,1-2.66,1.51-4,0-.06.05-.11.07-.16a1.92,1.92,0,0,0,1.43.07,3.4,3.4,0,0,0,2.94.17c2.47-1.09,4.76-4.85,5.25-8.24,1-1.3,2.1-2.51,3-3.53l0,0a2,2,0,0,0,.63-1.45A8,8,0,0,0,69,71.1a1.9,1.9,0,0,0,.37-.81l1.13-1.38c.59-.71,1.15-1.44,1.71-2.17a50.34,50.34,0,0,1,4.66-4l.44-.26a1.47,1.47,0,0,0,1.32,0,9.58,9.58,0,0,0,2.21-1.44,10.18,10.18,0,0,1,2-.61,6.46,6.46,0,0,0,2.87-.32,1.59,1.59,0,0,0,1.29-1.6l.06,0a6.52,6.52,0,0,0,4.45-.71A1.94,1.94,0,0,0,92.64,56c1.85-.28,3.76-.46,4.09-.5,1.26-.15,2.52-.36,3.78-.55,2.38.73,5.54.15,8,.4,1.54.15,3-.07,4.58,0a10.11,10.11,0,0,1,1.65.13,4.21,4.21,0,0,0,.62,0c.33-.08.32,0,0,.11A1.4,1.4,0,0,0,117.53,53.85Z" transform="translate(-41.49 -27.38)"/><path class="c" d="M75.82,136.09A5.54,5.54,0,0,0,73.38,138,11.42,11.42,0,0,0,71,140.41c-.54,1-.23,1.6-1.08,2.45s-1.63,2.1-2.59,3.06a.81.81,0,0,0,0,1.27,1.24,1.24,0,0,0-.45.11c-3.16,1.5-5.82,5.81-7.78,8.52A19.32,19.32,0,0,1,57,158.34a1.29,1.29,0,0,0-.93-.19,7.81,7.81,0,0,0-4,2.23c.08-.77.17-1.49.17-1.87,0-2.5.52-4.85.72-7.32a27,27,0,0,0-.87-9.09,1.33,1.33,0,0,0-.24-.46s0,0,0-.08a23.51,23.51,0,0,0,0-4.28.78.78,0,0,0,.53-.25,14.14,14.14,0,0,0,1.45-2.2,4.29,4.29,0,0,0,.68-1.08,2.91,2.91,0,0,0,.12-.39c.16-.31.33-.62.52-.93a1.84,1.84,0,0,0-2.88-2.22c-.54.52-1.23,1.18-1.16,2,0,.13,0,.18.06.21l-.16.14a54.88,54.88,0,0,0-2.74-7.85c-.46-1.08-2-.28-1.82.77.68,3.17,1.2,6.39,1.84,9.57.4,2,.25,5.55,1.79,7.06a1.28,1.28,0,0,0-.06.56c.17,1.14-.7,3.29-.89,4.62-.28,1.87-.28,3.88-.43,5.77-.18,2.32.38,5.62-.24,8.13a2.54,2.54,0,0,0-1,1.39h0c-.1.54-.2,1-.25,1.51a.2.2,0,0,0,0,.07,4.47,4.47,0,0,0,.2,2.09,2.79,2.79,0,0,0,4,1.64,20.26,20.26,0,0,0,3.13-2.18c2.79.15,7-4.47,8.14-5.8,2.3-2.71,8.32-8.22,5.79-12.22a1.15,1.15,0,0,0-.28-.3.93.93,0,0,0,.49-.19c1.76-1.42,3.07-3.37,4.57-4.88a13.69,13.69,0,0,0,3.43-5.42A.67.67,0,0,0,75.82,136.09Z" transform="translate(-41.49 -27.38)"/><path class="c" d="M95,130.1a5,5,0,0,0-1.18.07,1.46,1.46,0,0,0-.88-.52c-2.07-.36-4.74-.9-6.8-.3a18.4,18.4,0,0,0-2,.75,3.18,3.18,0,0,0-.16-.32,1.59,1.59,0,0,0-2.48-.32,2.94,2.94,0,0,1-.75.7,1,1,0,0,0-.42,1,13.74,13.74,0,0,1-1.89,2.07c-1.82,1.59.14,4.3,2.23,3.83a39.1,39.1,0,0,0,5.47-1.75,38.76,38.76,0,0,1,4.25-.92c1.92-.52,4.16-1.5,5.12-3.33A.63.63,0,0,0,95,130.1Z" transform="translate(-41.49 -27.38)"/><path class="c" d="M98,128.29a3.32,3.32,0,0,0-1.35,1.09.72.72,0,0,0,1,1,3.36,3.36,0,0,0,1.09-1.34A.63.63,0,0,0,98,128.29Z" transform="translate(-41.49 -27.38)"/><path class="c" d="M115.27,71.27l0-.07c.68-1.63-1.84-3-2.94-1.71-2.82,3.28-6.56,5.49-9.82,8.41a32.58,32.58,0,0,0-8,10.13,12.67,12.67,0,0,0-.67,1.5c-.72,2,2.3,3.15,3.33,1.41.2-.35.41-.68.62-1h0c2.65-2.12,4.37-5.22,6.89-7.44.69-.61,1.35-1.24,2-1.88,1.46-1.08,2.89-2.26,4.33-3.37a13.15,13.15,0,0,0,2.43-2.39,1.59,1.59,0,0,0,.71-1l0-.07c.33-.5.66-1,1-1.62A.75.75,0,0,0,115.27,71.27Z" transform="translate(-41.49 -27.38)"/><path class="d" d="M153.51,34.49c1.39-1.9-1.39-4.67-3.28-3.28-3.85,2.82-6.81,6.92-10.45,10-3.11,2.67-8.2,5.4-9.62,9.47a2.29,2.29,0,0,0-.07.28c-.92.62-1.84,1.21-2.67,1.78-1.36.94-3.14,1.85-3.66,3.5-.17.13-.33.26-.52.38-2,1.43-4.4,2.19-6.51,3.49l-.17.13c-5.75,1.72-10.65,5.06-16,7.67-4.41,2.13-9.93,3.73-12.7,8a2.15,2.15,0,0,0-.3.75,23.17,23.17,0,0,0-6.85,4.09l-.06.06a25.54,25.54,0,0,0-8.07,3.63,2.63,2.63,0,0,0-1,1.57,3,3,0,0,0-.72.53c-.69.66-.66,1.41-.92,2.09-.71.35-1.41.73-2.12,1.11a.88.88,0,0,0,.67,1.6,9,9,0,0,1,2.34-.49c.77,0,1.48.12,2.26,0a5.52,5.52,0,0,0,3.57-1.49,1.34,1.34,0,0,0,.34-.87L78,88.27c-.58.9-1.29,1.74-1.84,2.48a13.74,13.74,0,0,0-2.51,5.39,2.31,2.31,0,0,0,.17,1.26c-.39.31-.75.58-.87.7a15.08,15.08,0,0,0-3,3.7c-2.15,1.7-4,3.86-6.25,5.14a2,2,0,0,0,1.94,3.49c-1.51,2.54-3.35,5-4.61,7.51-1.5,3-2.46,3.77-5,5.9-1.61,1.33.45,3.4,2.07,2.68l.21-.1c-.62,2.16-1.7,4.65-2.22,6.09a1.56,1.56,0,0,0,.39,1.68,12.37,12.37,0,0,0-.54,1.55,2,2,0,0,0,1.37,2.42c1.59.39,2.68-1,3.39-2.2a7,7,0,0,0,.35-.79c-.13.31.21-.5.27-.66a8.71,8.71,0,0,0,.7-2.4,1.38,1.38,0,0,0-1-1.29.85.85,0,0,0-.33-.07c.88-2.32,1.72-4.92,1.61-7a1.82,1.82,0,0,0-.13-.57,10.48,10.48,0,0,0,2.3-3.24q1.29-2.59,2.44-5.24c.54-1.22,1.06-4.32,1.82-5.94a2.75,2.75,0,0,0,1.23-1.56l0,0s0-.05,0-.07h0a.64.64,0,0,0,0-.2c.72-.74,1.42-1.51,2.13-2.24A1.71,1.71,0,0,0,73,104c1.81-2.1,4.61-4.47,5.1-7.31a1.53,1.53,0,0,0,0-.64c.09-.22.19-.45.29-.66a19.63,19.63,0,0,1,2.18-3.63c1.1-1.5,2.63-4.27,1.59-6.07a1.64,1.64,0,0,0-.45-.49,16.23,16.23,0,0,0,3-1.71c2.82-1.71,5.28-4,8.08-5.7a1.25,1.25,0,0,0,.3-.26,75.19,75.19,0,0,1,10.32-5.47c4.5-1.8,8.68-4.42,13.24-6.06-2.25,4.65-1.09,12.23,3.44,15.22a1.45,1.45,0,0,0,1.75-.23c1.26-1.28-.2-3.14-.89-4.24a12.62,12.62,0,0,1-1.48-4.55c-.34-1.73-1.08-3.59-.62-5.37a1.17,1.17,0,0,0-.64-1.34c.38-.11.77-.24,1.16-.34A2.45,2.45,0,0,0,121,64c1.22-.7,2.48-1.32,3.67-2.08.08-.06,1.32-1.06,2.07-1.74l.26-.07A5.24,5.24,0,0,0,129,58.85a2.28,2.28,0,0,0,.72-1.56c1.58-1.22,4.75-3,5.5-3.68A23,23,0,0,0,139,49.49l1.89-1.65a60.66,60.66,0,0,0,7-6,32.34,32.34,0,0,0,3.81-4.59C152.26,36.53,153.84,34,153.51,34.49Z" transform="translate(-41.49 -27.38)"/><path class="d" d="M93.33,104.58A20.9,20.9,0,0,1,91,98.73c-1.19-4.61-2.13-9-1.74-13.84a1.28,1.28,0,0,0-2.51-.34,33.94,33.94,0,0,0,.64,14.33c.83,3.44,2.42,10.31,6.63,11.1.65.12,1.5-.3,1.42-1.09C95.28,107.13,94.24,106.1,93.33,104.58Z" transform="translate(-41.49 -27.38)"/><path class="c" d="M152.25,31.5a2.64,2.64,0,0,0-1.83,3.21c.09.24.19.56.32.86-2.48,1.5-4.35,3.91-6.17,6.28a22.31,22.31,0,0,0-3.28,4,2.56,2.56,0,0,0-.28.7,11.34,11.34,0,0,0-6.21,5.17,6.39,6.39,0,0,0-2.49,2.73,2.17,2.17,0,0,0-.07.24,14.52,14.52,0,0,0-5.3,3.55l-.12,0c-1.87-.39-3.29.85-4.21,2.37a10.7,10.7,0,0,0-2,1.72,11.69,11.69,0,0,0-.89,1.24l-.19.06a7.62,7.62,0,0,0-1.73.88,2.66,2.66,0,0,0-.43.39.65.65,0,0,0-.32-.19,5.37,5.37,0,0,0-3.59,1c-.52.34-1,.71-1.53,1.1-1.83-.79-3.89,1.58-5.36,2.35-1,.52-1.93,1-2.83,1.54a2.31,2.31,0,0,0-1.64-.4c-2,.32-3.47,1.84-4.79,3.45a2.36,2.36,0,0,0-1.38.2c-2.59,1.2-5.09,3.45-7.32,5.23a60.09,60.09,0,0,0-5.14,4,5.76,5.76,0,0,0-2,2.83,5.68,5.68,0,0,0-1,3.12l.08,0a1.49,1.49,0,0,0,.16.69c-.84,1-1.71,2-2.47,3-1.16,1.61-2.86,3.6-2.26,5.66a.54.54,0,0,0,.05.11c-.16.27-.3.54-.46.81-.57.95-1.17,1.94-1.74,2.93l0,.09a1.5,1.5,0,0,0-.87.3,7.4,7.4,0,0,0-1.82,2,1.8,1.8,0,0,0-1.64,1c-1.94,3.37-4.65,7.44-5,11.4a1.53,1.53,0,0,0,0,.43,15.36,15.36,0,0,0-3.27,9.74C60.08,129,59,131,59.51,133c.37,1.31,2.14.72,2-.54-.15-1.06,2.22-2.76,2.92-3.56s1.29-1.49,1.83-2.25a1.62,1.62,0,0,0,1.23-1.25c.14-.67.31-1.37.49-2.08,1.17-2.75,2.17-5.57,3.35-8.33a2.18,2.18,0,0,0,.17-.69,2.09,2.09,0,0,0,1-.89A28.2,28.2,0,0,0,75,107.7c1.17-2.38,2.28-4.78,3.5-7.14.34-.66.63-1.33.9-2,.52-.84,1-1.73,1.44-2.62a.79.79,0,0,0,.3,0c1.68-.73,2-2.66,2.78-4.15a48,48,0,0,0,2.51-5.35l0,0A1.93,1.93,0,0,0,88,87.69c0,7,3.81,14.06,5,20.91.32,1.81,3.29,1.39,3.2-.43.45-4.32-1.62-7.56-2.5-11.55a76.61,76.61,0,0,1-1.72-8.86,8.66,8.66,0,0,1,.34-3.15c1.4-1.25,2.82-2.47,4.28-3.73,2.37-2,4.11-5.18,6.8-6.79a2.6,2.6,0,0,0,.5-.34l.15-.14a2.05,2.05,0,0,0,.45-.56c3.18-.77,6.58-1.49,8.18-4.33a1.12,1.12,0,0,0,.08-.26c.6-.22,1.19-.43,1.75-.7a15.21,15.21,0,0,0,2.34-1.44,1.69,1.69,0,0,0,.07.38,2.26,2.26,0,0,0,1,1.22c-.48,2.41.14,4.54.61,6.73-.27,2.06-.16,4,.91,5.16a1.79,1.79,0,0,0,3-.79c.47-2.17-.24-4.23-.57-6.34,0-1.49.2-3,.36-4.48a11.47,11.47,0,0,1,3.58-4.46,20.46,20.46,0,0,0,6.37-3.34,1.71,1.71,0,0,0,.72-.11l1-.38a2.53,2.53,0,0,0,2.7,1.06,2.32,2.32,0,0,0,2.14-1.63,3.51,3.51,0,0,0,0-2.59s-.06-.11-.1-.19a2,2,0,0,0-.06-.76c2.52-.7,5-2.92,6.78-4.35,2.63-2.11,6-4.61,7.9-7.68,2.3-1.42,4.38-4.25,4.28-6.64C160,33.9,156.84,30.15,152.25,31.5Z" transform="translate(-41.49 -27.38)"/><path class="e" d="M160.23,74.39a3.47,3.47,0,0,0-.31-.71.78.78,0,0,0,0-.14,22,22,0,0,0-2.4-7.12A2.66,2.66,0,0,0,154,65.25a23.68,23.68,0,0,0-2.94-2.55,15.37,15.37,0,0,0-2.24-1.65,3.07,3.07,0,0,0-2.59-1.81,3.75,3.75,0,0,0-2.42.38,4.18,4.18,0,0,0-3.09,1c-1.82,1.6-.19,4.12,1.79,4.33a3.64,3.64,0,0,0,.66,0,2.89,2.89,0,0,0,.85.55c.05.13.09.28.15.45a2.19,2.19,0,0,0,.26,1.15,3.74,3.74,0,0,0,.34.62,4.15,4.15,0,0,0-.48,1.78c0,.77.74,1.63.7,2.32-.17.37-.34.74-.5,1.12a2.43,2.43,0,0,0-1.88-2.07,3.59,3.59,0,0,0-2.84.51,2.34,2.34,0,0,0-1.13,1.92,5.08,5.08,0,0,0-1.43.16.37.37,0,0,0-.17.18,2.36,2.36,0,0,0,0-.28c.22-1.71-1.66-3.13-3.26-3a2.6,2.6,0,0,0-.88,0,5.75,5.75,0,0,0-2.42,1,3,3,0,0,0-1.15,3.8,3,3,0,0,0,2.18,3.14,3,3,0,0,0,2.3,3.07A3.42,3.42,0,0,0,133,83c-1.17.46-1.62,1.71-2.2,2.86-.85,1.7-3,3.73-3.46,5.64a6.79,6.79,0,0,0,.3,2c-2,.85-3.94,1.48-5.56,3-.23.21-.42.41-.6.58-1.23-1.82-2.37-3.55-2-6.12a3.16,3.16,0,0,0-.34-1.84,3,3,0,0,0,.09-.43,23.19,23.19,0,0,1,.37-2.79,3.77,3.77,0,0,0-.73-3.65,2.46,2.46,0,0,0-2.38-.63,4.28,4.28,0,0,0-1.66.84c0-.06-.05-.13-.08-.19a2.92,2.92,0,0,0-.4-.59,2,2,0,0,0-.24-.26c-.13-.13-.11-.12.08,0-.23-1.6-2.82-1.51-3.14,0a3.9,3.9,0,0,0,.63,2.75,7.52,7.52,0,0,1,.38,1.43c.15.57.34,1.13.46,1.72a1.15,1.15,0,0,0,2.12.19c.07.33.15.65.24,1a2,2,0,0,0-.41.46l-.06.09a1.93,1.93,0,0,0-.28.88c-1.91,4.11-.34,7.09,2.18,10.21a16.26,16.26,0,0,1-1.92.69c-2.22.62-1.84,3.38,0,4.15,2.07.85,5-.7,6.9-1.42a3.12,3.12,0,0,0,1.52-1.13,5.92,5.92,0,0,0,.73-.31c1.11-.58,2.21-1.19,3.3-1.79a3.11,3.11,0,0,0,2.12.38,8.72,8.72,0,0,0,3.94-2.24,2,2,0,0,0,.56-1l.18-.18a2.76,2.76,0,0,0,.71-2.69c0-.13-.08-.26-.13-.39a3,3,0,0,0-2.95-2.08,2.37,2.37,0,0,1-.25-.42c.36.25,3.59-3.13,3.74-3.22s2-.27,2.82-1.09c1.29-1.3,1.09-2.28,2.74-3.38.22-.15,1.79-.78,2.65-1.18a3.42,3.42,0,0,0,1.91.63,4.68,4.68,0,0,0,.54,0,2.83,2.83,0,0,0,1.59,2.06,3.89,3.89,0,0,0-.46,2.49,3,3,0,0,0,1,1.45,8.71,8.71,0,0,0-1,1.16,2.56,2.56,0,0,0-.37,2,1.27,1.27,0,0,0-.07.12c-1.48,3.11-5,5.73-7.64,7.81-1.94,1.51-5,3.35-5.69,5.78a3.15,3.15,0,0,0,.69,2.84,53.3,53.3,0,0,1-11.06,4.31,34.75,34.75,0,0,1-6.44.76,4.07,4.07,0,0,0-.06-.61l0,0c1.32-1.75-.45-4-2.36-4.12a1.82,1.82,0,0,0-1.93.5c-.28.12-.56.26-.85.4a13.63,13.63,0,0,0-2-.16,2,2,0,0,0-.4-.7,12.17,12.17,0,0,0,1.12-3.36c.41-1.87.76-4.5-.77-6a3.15,3.15,0,0,0-.87-.6,10.71,10.71,0,0,0,.79-3.52,2.75,2.75,0,0,0-2.39-2.68,2.19,2.19,0,0,0-2.43-.35,2.91,2.91,0,0,0-1,.73,6.44,6.44,0,0,0-1.35,1.49,2.75,2.75,0,0,0,1.5,4,7.8,7.8,0,0,1-.29,1.08,1.69,1.69,0,0,0,0,1.11,5.21,5.21,0,0,0-.65,2.36,9,9,0,0,1,.1,1.87.36.36,0,0,1,0,.09,4.66,4.66,0,0,0-1.73.68c-1.94,1.24-1.76,4.76.35,5.46a3.12,3.12,0,0,1-.81.81c-2,1.49-1.36,5.24.9,5.49-.09.29-.19.58-.26.88a4.27,4.27,0,0,0,.2,2.94h0a1.85,1.85,0,0,0-.15,1.1c-1.75,2.27-3.92,5.25-6,6.84h0a1.6,1.6,0,0,0,0,2.73c4.3,2.18,10.78-5.48,12.67-8.75,2-3.49,6-3.7,9.78-4a32,32,0,0,0,10.31-2c6.2-2.46,13-4.92,17.68-9.83,3-3.2,6.34-8.7,5.38-13.33l.3-.16c3.06-2,7.06-2.22,8.54-6.06a11.9,11.9,0,0,0,.36-6.91,27.71,27.71,0,0,0,.6-4.39A14.21,14.21,0,0,0,160.23,74.39Zm-10.4,2.28a8.18,8.18,0,0,0,1.33-3.8c.41,1.35.48,2.62.8,4.26,0,.17.08.35.13.53A3.31,3.31,0,0,0,149.83,76.67Zm2.67,8.56a6.65,6.65,0,0,0,.37-2.06,2.86,2.86,0,0,0-.38-1.37,8,8,0,0,0,.53-1.1l.08-.29a14,14,0,0,1,.83,2.71A9,9,0,0,1,152.5,85.23Z" transform="translate(-41.49 -27.38)"/><path class="e" d="M91.28,109.24a2.66,2.66,0,0,0-2.15-2.51c-.43-1.83-1.51-3.35-3.79-3.38-2.69,0-4.29,2.57-5.44,4.65s-2.2,5.81.16,7.65a3.46,3.46,0,0,0,1,.53,23.79,23.79,0,0,0-2.85,1.74,2.92,2.92,0,0,0-1.08,3.62,1,1,0,0,0,1.32.35,15.64,15.64,0,0,1,2.07-.93,19.66,19.66,0,0,0,3.13-1.85c.49-.34,1-.69,1.47-1s.6-.33.47-.38l.1,0a1.28,1.28,0,0,0,2.55,0c0-.33,0-.63,0-.92a1.82,1.82,0,0,0,1.7-2.08,4.7,4.7,0,0,1,.4-2.73A5.3,5.3,0,0,0,91.28,109.24Z" transform="translate(-41.49 -27.38)"/><path class="e" d="M66,94a2.86,2.86,0,0,0-1.37.56c-.42.28-.84.42-1.24.72a10.69,10.69,0,0,0-1.13.88c-.32.34-.55.78-.85,1.13a1.83,1.83,0,0,0,0,2.52,1.81,1.81,0,0,0,.57.37,1.16,1.16,0,0,0-.08.53c0,.5-.61,1.21-1.29,1.88a1.09,1.09,0,0,0-.24,0,5.11,5.11,0,0,0-2.58,1.82,5.55,5.55,0,0,0-.72,1.49,1.94,1.94,0,0,0,.52,2,.81.81,0,0,0,.14.12,4.26,4.26,0,0,1-.87,1.65c-.46.54-1.15,1-1.29,1.76a1.26,1.26,0,0,0,.5,1.4,1.06,1.06,0,0,0-.25.44,5.58,5.58,0,0,0-.34,1.94,1,1,0,0,0,.12.42h0a1.37,1.37,0,0,0-.7.67c-.18.31-.35.62-.52.94a.93.93,0,0,0,1.6.93,4.38,4.38,0,0,0,.87-1.63,2.47,2.47,0,0,1,.24-.49.89.89,0,0,0,.42-.58c.12-.56.19-1.1.35-1.65a.93.93,0,0,0-.22-1,1.2,1.2,0,0,0,.53-1.42c-.06-.26.59-1.1.72-1.4a20.26,20.26,0,0,0,.93-2.54,20.65,20.65,0,0,1,.72-2.06,1.93,1.93,0,0,1,.71-.74,1.11,1.11,0,0,0,.47-1.23,7.84,7.84,0,0,1,1.6-1.94c.8-.41.62-1,.16-1.37a1.53,1.53,0,0,0,.46-.34c.36-.43.65-.9,1-1.33-.1.13.24-.23.23-.23.16-.15.33-.29.48-.45a7.15,7.15,0,0,0,.87-1.36A2.94,2.94,0,0,0,67,95.06,1.06,1.06,0,0,0,66,94Z" transform="translate(-41.49 -27.38)"/><path class="e" d="M109.72,60.14a1,1,0,0,0-1.33-.35l-.55.26a.85.85,0,0,0-.45.59c-1.79-.78-4.22.54-5.9,1.23-2.34,1-3.35,3.2-5.56,4.29-.53.27-.07,1,.46.79.11,0,.23-.08.34-.12a1,1,0,0,0,.93,1,2.83,2.83,0,0,0,1.43-.5c.39-.25.77-.52,1.14-.78a1.2,1.2,0,0,0,.54-1.16,9.2,9.2,0,0,1,1.78-1c1.81-.65,3.64-.9,5.17-2.13a.88.88,0,0,0,.27-.5,1.14,1.14,0,0,0,.83-.05l.55-.26A1,1,0,0,0,109.72,60.14Z" transform="translate(-41.49 -27.38)"/><path class="e" d="M106,88.67a2.24,2.24,0,0,0-2.07-1.08,1.84,1.84,0,0,0-1.81,1.81,1.88,1.88,0,0,0,1.63,1.81A1.41,1.41,0,0,0,106,90.6,2.44,2.44,0,0,0,106,88.67Z" transform="translate(-41.49 -27.38)"/><path class="e" d="M98,120.62c-.16,0-.32-.1-.48-.13a1.43,1.43,0,0,0-.82-.27,1.83,1.83,0,0,0-.77.13h0a1.86,1.86,0,0,0-1.65,1,5.38,5.38,0,0,0-.34.95l-.09.39v0a2,2,0,1,0,3.4,2.07,2.65,2.65,0,0,0,.27-.5,1.83,1.83,0,0,0,.53-3.6Z" transform="translate(-41.49 -27.38)"/><path class="e" d="M77.45,125.8a1.4,1.4,0,0,0-1.94,0,6.25,6.25,0,0,0-1.35,1.82,9.72,9.72,0,0,1-.89,1.12c-1.16,1.22-2.38,1.76-2.58,3.6a2,2,0,0,0,1.46,1.92,2.06,2.06,0,0,0,2.25-.91l.14-.24a1.83,1.83,0,0,0,.63-.36,2.92,2.92,0,0,0,.66-1h0a7.49,7.49,0,0,0,1.31-2C77.67,128.63,78.64,126.88,77.45,125.8Z" transform="translate(-41.49 -27.38)"/><path class="e" d="M62.43,138.5a14,14,0,0,0-1.4,1.15,3.12,3.12,0,0,0-.82,2.66,1.71,1.71,0,0,0,3.11.41,7.46,7.46,0,0,0,.52-1.53,3.94,3.94,0,0,0,.19-.84c0,.47.06.1.19-.06A1.27,1.27,0,0,0,62.43,138.5Z" transform="translate(-41.49 -27.38)"/><path class="f" d="M159.6,74.5c-.35-2.26-.26-5.07-1-7.12S156,65,154.34,64.23c-2-.9-4.09-2.57-6.27-2.82a1.72,1.72,0,0,0-1.65,1.26c-.75,2.18.27,3.1,1.54,4a6,6,0,0,0-.57,1.68,5,5,0,0,0,.49,3.67c.14.31.37.81.59,1.33l0,0c-.15.19-.28.38-.41.57h0a5.46,5.46,0,0,1-1.38,1A2.16,2.16,0,0,0,144,73.55a11.44,11.44,0,0,1-3,.38,1.31,1.31,0,0,0-.65,2.41,9.29,9.29,0,0,0,.83.51,3.24,3.24,0,0,0-.14,1.53,1.16,1.16,0,0,0-.69,0,11.82,11.82,0,0,1-1.5.32,12.18,12.18,0,0,0-.66-1.35,3.78,3.78,0,0,0-2-1.8,1.06,1.06,0,0,0-1.6.48,1.46,1.46,0,0,0,.25,2.22c0,.09,0,.19,0,.21,0,.36,0,.73,0,1.09a3.76,3.76,0,0,0,.94,2.26,3.34,3.34,0,0,0,.73.57l.07,0a1.37,1.37,0,0,0,.3.21,3.18,3.18,0,0,0,1.41.37,1.86,1.86,0,0,0,1.91-2c.25-.11.5-.2.76-.3a1.21,1.21,0,0,0,.8-1,3.84,3.84,0,0,0,.88.64,6.31,6.31,0,0,0,5.15-.11,3,3,0,0,0,1.38.89,1.24,1.24,0,0,0,.25,1.25l.07.06a2.12,2.12,0,0,0,1,1.73,4.24,4.24,0,0,0,.59.23c0,.14.05.28.09.42a1.83,1.83,0,0,0,.62.92,6.19,6.19,0,0,0-.25,1.79,1.2,1.2,0,0,0,0,.2,18.84,18.84,0,0,0-1.46,3.9,12.12,12.12,0,0,1-1.32,2.5c-.63,1.17-.89,2.56-1.72,3.67-1,1.3,1.08,2.71,2.18,1.67,1.5-1.42,4.37-3.37,5.22-5.33a11.14,11.14,0,0,0,.4-1.87,10.92,10.92,0,0,1,.95-2.17A9.13,9.13,0,0,0,157.05,87c.13-.47.26-.94.4-1.4a1.42,1.42,0,0,0,.19-.7c.14-.53.28-1.07.39-1.61a2.29,2.29,0,0,0,2-1.65C160.58,79.42,160,76.75,159.6,74.5Zm-6-5.7a8.51,8.51,0,0,0-.31,1.63v0a8.76,8.76,0,0,1-.84-2.18A7.82,7.82,0,0,0,153.63,68.8Z" transform="translate(-41.49 -27.38)"/><path class="f" d="M132.12,88.05c-2.34.85-4.11,1.36-4.77,4-.36,1.44-1.32,2.53-1.89,3.89a4.68,4.68,0,0,1-.6,1.44c-.53.58-.94.54-1.3,1.26a.91.91,0,0,0,.53,1.31c2.07.8,3.26-1.69,4.13-3.11a12.5,12.5,0,0,0,2-3.6c.15-.68,0-1.2.58-1.76a6,6,0,0,1,2.06-.71C134.59,90.19,133.8,87.43,132.12,88.05Z" transform="translate(-41.49 -27.38)"/><path class="f" d="M119.66,99c-.3,0-.6-.08-.9-.1.22-1.5.84-3.91-.32-5.09a1.11,1.11,0,0,0-1.56,0,3.39,3.39,0,0,0-.61,2.59,7.59,7.59,0,0,0,.14,1.25c.1.48.38.88.5,1.36a1,1,0,0,0,.19.33.52.52,0,0,0-.18.25l0,.07a.7.7,0,0,0,.32.79c.4.26.73.1,1.12-.07s.73,0,1.12.1A.75.75,0,1,0,119.66,99Z" transform="translate(-41.49 -27.38)"/><path class="f" d="M119.48,116.89a3,3,0,0,0-2.54.88,1.9,1.9,0,0,0-.25.24,1.2,1.2,0,0,0-1.26-.93l-.13-.07a4.07,4.07,0,0,0-1.65-.54,7.69,7.69,0,0,0-3.74,1.26,7.73,7.73,0,0,0-.9-4.09c-.73-1.33-1.64-2.22-2-3.76a21.46,21.46,0,0,1-.54-2.63,1.28,1.28,0,0,0,.64-1.87l-.52-.77a1.58,1.58,0,0,0-2.44-.32c-1.85,1.56-1.13,3.89-.9,6a8.72,8.72,0,0,0,1,3.42,8.85,8.85,0,0,1,1.35,2.39c.17,1-.6,2.2-.74,3.16a2.56,2.56,0,0,0,.32,1.71l-.51.51c-1.35,1.49-2.2,3.25-4.21,3.94a1.21,1.21,0,1,0,.94,2.23c3.16-1.58,5.19-4.4,8.29-6a12.55,12.55,0,0,1,4.79-1.52,2.52,2.52,0,0,0,1.9-.72,1,1,0,0,0,.09-.13.32.32,0,0,1,0,.09,1.12,1.12,0,0,0,1.51.39,17.81,17.81,0,0,1,1.67-.89A1,1,0,0,0,119.48,116.89Z" transform="translate(-41.49 -27.38)"/><path class="f" d="M146,99.77c.14-.06-1.36.68-1.16.73a1.81,1.81,0,0,0-2,.8c-2.57,4.22-4.67,7.33-8.84,10-1.64,1.08-1.51.67-3.2.82-3.1.27-6.46,2.83-9.17,4.3a1.07,1.07,0,0,0,.82,2c1.77-.49,3.6-.84,5.33-1.45s3.38-2,4.84-2.43c2.18-.59,4.37-.75,6.55-1.75,2.87-1.32,8.69-7.22,6.94-11a4.74,4.74,0,0,1,.73-.88C147.52,100.36,146.65,99.46,146,99.77Z" transform="translate(-41.49 -27.38)"/><path class="f" d="M89.45,106.76a4.29,4.29,0,0,0-2.93-3c-.71-.22-.94-.28-1.13-.33A18.94,18.94,0,0,0,86,100c.11-2.08-3-2.41-3.57-.48a5.62,5.62,0,0,0-.06,3.46c0,.24,0,.48,0,.73a2.33,2.33,0,0,0-.38,2.7A3.09,3.09,0,0,0,83.12,108a17.83,17.83,0,0,1-.1,3.18c-.23,1.82-1,2.43-1.82,4.18-.56,1.23-.4,2.25-.66,3.47-.31,1.39,1.45,2.65,2.52,1.47a15.77,15.77,0,0,0,3-4.81,2.06,2.06,0,0,0,1.9-.09,3,3,0,0,0,1.54-2.81C89.62,110.83,90,108.48,89.45,106.76Z" transform="translate(-41.49 -27.38)"/><path class="f" d="M74,128.64c-.43.7-1.12,1.64-.68,2.43v.15a.89.89,0,0,0,1.65.45l.06-.09c.66-.38.87-1.31,1.09-2.05A1.16,1.16,0,0,0,74,128.64Z" transform="translate(-41.49 -27.38)"/><path class="g" d="M159.59,81.55c.06-2.28-.94-4.27-1.22-6.49a2.46,2.46,0,0,0-.13-.5,11.71,11.71,0,0,0-.33-3,4.08,4.08,0,0,0-2-2.75,4.81,4.81,0,0,0-.21-.87h0c-.48-1.51-2.93-2.09-3.67-.33a2.69,2.69,0,0,0-.9,0,2.4,2.4,0,0,0-1.56.89,2.61,2.61,0,0,0-.54,1,2.25,2.25,0,0,0,2.51,3.1,5.94,5.94,0,0,0,2.77-.36,2.57,2.57,0,0,1,.2.92c0,.56,0,1.13.1,1.68a1.49,1.49,0,0,0-1.46-1,1.63,1.63,0,0,0,0,3.26,1.51,1.51,0,0,0,1.14-.47,21.73,21.73,0,0,0,.47,3.62,5.71,5.71,0,0,0-.86,3.78,2.2,2.2,0,0,0,.87,1.33l.12.07c0,.18,0,.34.08.51a1,1,0,0,0-.12.16,2.9,2.9,0,0,0-.13,1.93c.22,1.5,2.31,1.46,3,.4.38-.6.83-1.13,1.22-1.71a1.74,1.74,0,0,0,.19-1.36A15.48,15.48,0,0,0,159.59,81.55Z" transform="translate(-41.49 -27.38)"/><path class="g" d="M149.3,77.75a1.38,1.38,0,0,0,.28-1.76,1.47,1.47,0,0,0-2.28-.29,16.16,16.16,0,0,0-1.76,1.75c-.28.35-.48.72-.74,1.06a1,1,0,0,0-.64-.22,1.1,1.1,0,0,0,0,2.2,1,1,0,0,0,1-.77l.07-.1a1.24,1.24,0,0,1,1-.72,7,7,0,0,0,1.11-.2,7.48,7.48,0,0,0,.84-.35.62.62,0,0,0,.63.54.68.68,0,0,0,.47-1.14Z" transform="translate(-41.49 -27.38)"/><path class="g" d="M129.19,94.92l0,0C129.43,95,129.42,95,129.19,94.92Z" transform="translate(-41.49 -27.38)"/><path class="g" d="M130.74,93.63c-.08-.26-.28-.51-.35-.76s.11-.54.25-.77a.75.75,0,0,0-1.18-.91,3.26,3.26,0,0,0-1,1.94,2.66,2.66,0,0,0,.11,1,1.34,1.34,0,0,0,.23.5.79.79,0,0,0,.31.29l.08,0-.3-.3a1,1,0,0,0,1.34.27A1.12,1.12,0,0,0,130.74,93.63Z" transform="translate(-41.49 -27.38)"/><path class="g" d="M114.33,116.47c-1.61-.16-3.07.77-4.42,1.5l-.51.29a15.3,15.3,0,0,0-1.35-2.12,5.17,5.17,0,0,1-.6-.92c-.23-.62-.14-.46.12-1.15.55-1.48-.35-1.91-1-3.07a.44.44,0,0,0-.8.34c.21,1-.62,1.84-.45,2.85.11.67.52.9.86,1.42s.22,1.22.54,1.9,1.26,1.19.86,1.92c-.25.19-.51.4-.76.61a1,1,0,0,0-1,1.29l.09.29a1.09,1.09,0,0,0,1.58.64c1.28-.63,2.48-1.35,3.79-2s2.9-1,3.82-2A1.1,1.1,0,0,0,114.33,116.47Z" transform="translate(-41.49 -27.38)"/><path class="g" d="M136.16,110.53c-1.16,0-.61.12-1.67.39s-2.34.6-3.53.82a4.4,4.4,0,0,0-3,1.67,15.57,15.57,0,0,1-4.6.41,4.52,4.52,0,0,0-3.47.62c-2.14,1.13-.25,4.33,1.89,3.24s4.35-1.54,6.49-2.42a1.51,1.51,0,0,0,1.2.24,8.91,8.91,0,0,0,3.7-1.23c1.15-.87,2-2.21,3.18-3.07A.36.36,0,0,0,136.16,110.53Z" transform="translate(-41.49 -27.38)"/><path class="g" d="M153.12,88c-1.92.89-2.4,2.59-3.3,4.35a24.06,24.06,0,0,1-3.69,4.82c-1.42,1.69-1,2.39-1.57,4.29-.61,2.14-2.73,3.4-3.27,5.68-.27,1.14,1.42,2,2,.83,1.1-2.3,3.18-3.13,4.44-5.19.9-1.49,1.08-2.68,2.38-4s2.5-2.28,2.95-4c.21-.78,0-1.68.25-2.45.31-1.1,1.08-2,1.42-3.08A1.09,1.09,0,0,0,153.12,88Z" transform="translate(-41.49 -27.38)"/><path class="g" d="M87.08,107.72a1.85,1.85,0,0,0-.67-.69A1.79,1.79,0,0,0,83,107a2.49,2.49,0,0,0,.14,1.93,2.22,2.22,0,0,0,.73.69l-.24.26A1.5,1.5,0,0,0,85.72,112a5.43,5.43,0,0,0,1.54-2.41A2.61,2.61,0,0,0,87.08,107.72Z" transform="translate(-41.49 -27.38)"/><path class="a" d="M72.2,107.79a31.85,31.85,0,0,0-3.48,5.47c-1.17,2.66-1.64,5.59-2.57,8.34a.79.79,0,0,0,1.44.6A49.44,49.44,0,0,0,71,114.48c.64-2.1,1.82-4.12,2.22-6.28A.54.54,0,0,0,72.2,107.79Z" transform="translate(-41.49 -27.38)"/><path class="a" d="M81.16,94.05c-1.76,0-2.87,2.57-3.6,3.86A13,13,0,0,0,76.07,101a27.91,27.91,0,0,1-1.41,3.26c-.11.27.34.46.47.2,1-2,3-3,4.16-4.9.9-1.52,1.3-3.23,2.31-4.73A.51.51,0,0,0,81.16,94.05Z" transform="translate(-41.49 -27.38)"/><path class="a" d="M88.25,86.81a.34.34,0,0,0-.34-.34,1.16,1.16,0,0,0-.69.1,3.77,3.77,0,0,0-.76.61l-1.35,1.33a.77.77,0,0,0,1.1,1.09l1.33-1.34a4.42,4.42,0,0,0,.56-.67A1.25,1.25,0,0,0,88.25,86.81Z" transform="translate(-41.49 -27.38)"/><path class="a" d="M91.11,81.77A10.65,10.65,0,0,0,89,88.45c.12,3.29-.4,6.58,0,9.86,0,.17.27.24.32,0,.23-.93.41-1.86.58-2.79h0v-.12c.27-1.48.49-3,.69-4.51.24-1.88.14-3.4.91-5.18.47-1.1.89-2.24,1.3-3.37S91.48,80.85,91.11,81.77Z" transform="translate(-41.49 -27.38)"/><path class="a" d="M105.16,71.85a3.74,3.74,0,0,0-2.68.78,22.67,22.67,0,0,1-3.41,2c-2.09.95-3.89,2.71-5.83,4A.85.85,0,0,0,94.09,80,29.91,29.91,0,0,0,97,78.43a21,21,0,0,1,2.76-2.11c2-1,4-1.29,5.86-2.68A1,1,0,0,0,105.16,71.85Z" transform="translate(-41.49 -27.38)"/><path class="a" d="M119.48,68.51c-1.52,2.29-2.82,6.84.5,8.2.43.18.84-.26.86-.65.1-2.21-.44-4.33.5-6.46A1.08,1.08,0,0,0,119.48,68.51Z" transform="translate(-41.49 -27.38)"/><path class="a" d="M135.32,55a3.14,3.14,0,0,0-1.39.43c-.6.3-1.22.5-1.82.79a18.58,18.58,0,0,1-3.44,1.76c-1,.25-.81,1.87.24,1.79a15.44,15.44,0,0,0,4.52-1c1.17-.47,2.82-1.33,2.91-2.75A1,1,0,0,0,135.32,55Z" transform="translate(-41.49 -27.38)"/><path class="a" d="M155.9,34.8l-.08-.13a.77.77,0,0,0-1-.27c-.48.28-1.06.11-1.68.62a5.68,5.68,0,0,0-1.52,2.45c-.76,2-.6,3.52-2,5.1-1.76,2-3.07,4.09-5,5.88-2.36,2.16-5.21,3.77-7.48,6-.75.75.38,1.86,1.16,1.16a35.45,35.45,0,0,1,7.95-5.08,8.1,8.1,0,0,0,4.08-3.68c.64-1.47.82-3.29,1.36-4.82.92-2.66,2.23-4.08,4.13-6.16A.94.94,0,0,0,155.9,34.8Z" transform="translate(-41.49 -27.38)"/><path class="b" d="M77.56,107.71a7.56,7.56,0,0,1-1.67,2.36,7.18,7.18,0,0,0-1.09,2.09c-.06.14-.1.26-.16.4a5.13,5.13,0,0,0-.74,1.32A37.79,37.79,0,0,0,72,119.07a26.67,26.67,0,0,0-.9,8,1,1,0,0,0,2.08,0c0-1.44.79-2.58,1.33-3.87s.79-2.82,1.4-4.21c.88-2,2.14-4.37,1.29-6.6q.25-.72.48-1.44c.32-1,.25-2,.56-3C78.4,107.45,77.73,107.29,77.56,107.71Z" transform="translate(-41.49 -27.38)"/><path class="b" d="M70.21,133.06a.76.76,0,0,0-.59-.74,4.61,4.61,0,0,0-.13-1,2,2,0,0,0-3.23-.85c-1,.79-1.16,2-1.81,2.93l.23-.16a2.88,2.88,0,0,0-.46.39,3.44,3.44,0,0,0-.53.88,4,4,0,0,0-.56,1.75.74.74,0,0,0-1.22-.49,13.9,13.9,0,0,0-2.81,3.12,3.87,3.87,0,0,0-.39.79,1.22,1.22,0,0,0-.15.49l-.07.13c-.2.45-.37,1,.08,1.37a1.06,1.06,0,0,0,1.23.16,3.63,3.63,0,0,0,1.68-2.13,8.88,8.88,0,0,0,.52-1.36,3,3,0,0,1,.92-1.56.74.74,0,0,0,.21-.51h0a.78.78,0,0,0,.78.78,2.11,2.11,0,0,0,1.52-.77,4.92,4.92,0,0,0,.43-.46,3.13,3.13,0,0,0,.43-.07c.07.16.13.31.19.47a1.81,1.81,0,0,0,3,.79,3,3,0,0,0,.8-2.1C70.26,134.32,70.24,133.69,70.21,133.06Z" transform="translate(-41.49 -27.38)"/><path class="b" d="M143.57,59.4a2.85,2.85,0,0,0-.7-.12h0a2.51,2.51,0,0,0-2.17,4.12,5.59,5.59,0,0,0-1.67-1,10.52,10.52,0,0,0-2.9.22c-1.05.08-5.5,1.06-6,.81a1.89,1.89,0,0,0-1.92,0C125.93,65,125,65,124.11,67.84c-.79,2.54-.38,4.7-.43,7.35-.08,4.74,2,10.61-1.35,14.79-1,1.28.24,3.32,1.85,2.39,3.18-1.84,4.15-6.43,4.32-9.77.23-4.2-2.28-9.34-.53-13.51a5.82,5.82,0,0,1,2.54-2.58,22,22,0,0,1,7-.53s-.35-.36.58,0c.47.19.56.79,1,1a2.39,2.39,0,0,0,1.92.36,1.63,1.63,0,0,0,1.43.78c2.17-.26,2.73-2.24,3.19-4.06C146.12,62.07,145.61,60,143.57,59.4Z" transform="translate(-41.49 -27.38)"/><path class="h" d="M163,77.18c-.66-5.13-3.71-12.39-7.48-15.94-3.16-3-8-3.87-12.46-4.33a12.28,12.28,0,0,0,1.81-1.57c2.36-2.58,5.14-4.06,7.8-6.24,3.69-3,7-6.11,8.32-10.82.95-3.45.92-6.92-2.3-9.11-3-2.05-8.39-2.69-11.13,0a2.23,2.23,0,0,0-.32.38,33.7,33.7,0,0,0-4.17,4.64c-2,2.44-4.12,4.57-6.24,6.86-2.82,3.05-8.25,10-12.68,9.73-2.52-.13-5.33-1.52-7.83-1.94a47.85,47.85,0,0,0-9.79-.36c-6.13.29-12.49,2.06-18.31,3.82-11.35,3.45-20.8,8-28.83,16.81-3.45,3.81-7.36,8.16-9.77,12.74a12.7,12.7,0,0,0-1.44,5.77c-.06,2.14.2,4.51-.8,6.53-.55,1.09-1.49,2-2.07,3.06a2.07,2.07,0,0,0-.56.61c-8,13,1,28.33,1.75,41.89.23,4,.64,8.66-.41,12.54-.86,3.14-1.91,6-2,9.39-.22,5.54,3,11.1,9.17,8.78,6.91-2.61,12.23-9.59,16.34-15.46a40.38,40.38,0,0,0,4.55-8.59c.68-1.8,1.14-3.71,2.42-5.24,2.18-2.6,6.05-3.31,9.2-4.08,3.38-.83,6.43.56,9.68-.06s5.37-3.3,7.08-5.91c1.93-3,5.81-4.66,8.91-6.32,4.5-2.4,9.52-3.51,14.53-4.3,7.06-1.12,15.11-3.94,19.79-9.73a30.11,30.11,0,0,1,4.39-5c.91-.74,2.16-1.28,2.86-2.21,1.17-1.54.66-2.65-.08-3.79a3.83,3.83,0,0,0,2.8-1.31c1.52-1.92-.36-3.58.68-5.54.44-.85,2.77-1.75,3.55-2.59a8.61,8.61,0,0,0,1.8-2.92A21.15,21.15,0,0,0,163,77.18ZM127,54.33c4.13-1.69,8-5.34,11-8.5,1.9-2,3.9-4,5.77-6.11,2.35-2.6,4.09-6.17,7.22-7.95a2,2,0,0,0,.52-.42c2.32-.59,5.63,1.9,6.08,3.82.21.93-1.35,4.62-1.58,5-1.76,2.94-5.28,5.22-8,7.19a40.76,40.76,0,0,0-5.61,4.6c-1.82,1.88-4.19,3.14-5.84,5.16,0,.06-.08.12-.12.17l0,0a2,2,0,0,0-.22,1.81,6.37,6.37,0,0,0,.11.78,7.69,7.69,0,0,0-3.48-.08c-3.68.79-9.22,3.36-11.48,6.39-2.61,3.49-1.55,7.3-.4,11.13.34,1.13.69,2.19,1,3.21C121,79,119.52,78,118.53,76.34c-1.42-2.3-.58-4.92-1-7.39C116,61.23,107,70.48,104.17,72.66c-5.43,4.23-11.84,8.59-13.57,15.66a16.15,16.15,0,0,0,1.12,11.41c2,4,4.12,6.25,3.83,10.18a12.63,12.63,0,0,0-3-5.78c-2.31-2.47-3.94-5.23-3.83-8.82a25.18,25.18,0,0,0-.38-7.07c-.31-1.42-2.65-1.85-3.28-.43-1.65,3.75-4.16,7.1-6.19,10.64-1.84,3.2-3.15,6.7-5.06,9.85A47.14,47.14,0,0,0,69,118.76a48.88,48.88,0,0,0-1.3,5.34,2,2,0,0,0-1,.2c-3.47,1.78-4.39,5.39-6.24,8.57-.18.3-1.21,2.12-2.27,4.12.27-1,.55-1.92.75-2.75.65-2.68,1.77-5.45,1.94-8.19a1.61,1.61,0,0,0-2.39-1.38c-.91.47-1.8,1-2.69,1.44,4.67-5,7.79-11.31,11.95-16.61a1.24,1.24,0,0,0-1.49-1.94c-.63.3-1.29.67-2,1,5-6.1,11.06-11.51,15.12-18.19a1.64,1.64,0,0,0-1.41-2.45c-3.41.09-7,1.74-10.51,3,1.2-.77,2.36-1.55,3.45-2.28,5.74-3.79,14.62-6.86,18.47-12.79,0-.09.09-.17.13-.26,6.73-3.39,13-7.52,19.81-10.76,3.65-1.75,7.19-3.51,10.72-5.46C122.13,58.25,125.68,56.48,127,54.33Zm28.72,34.24c-1.48,1.23-3.32,1.6-4,3.57-.4,1.13.43,2.37.17,3.29-.19.67.24-.09-.91.49a13.35,13.35,0,0,1-1.77.29,2,2,0,0,0-1.4,2.46,12,12,0,0,0,1.12,1.94,1.5,1.5,0,0,0,.41.48l-.22.28c-.91,1.3-2.77,2.1-3.88,3.25-1.29,1.35-2,3.15-3.36,4.45-4.41,4.21-10.49,6.45-16.39,7.41a66.06,66.06,0,0,0-20.73,7.22A13.59,13.59,0,0,0,99.07,129c-3.2,4.92-5.33,3.51-9.84,3.51-5.38,0-12.89,2-16.11,6.54a29.77,29.77,0,0,0-3.29,6.79,40.52,40.52,0,0,1-7.41,12,40.64,40.64,0,0,1-7,6.53c-1.79,1.29-4.26,3.37-6.25,1.84-1.26-1-1.14-3.17-1.07-4.58.12-2.71,1-5.14,1.68-7.72a35.44,35.44,0,0,0,.81-10.47c-.37-7.49-1.88-14.69-3.51-22-1.51-6.73-2.74-15.09,1-21.4a1.85,1.85,0,0,0,.64-.75c.89-1.81,2.41-3.18,3.08-5.13,1-3-.16-6.28.89-9.28,1.12-3.21,3.9-6,6.07-8.43,1.41-1.6,2.49-3.42,3.94-5,8.69-9.69,20.37-14.13,32.87-16.88,6.27-1.38,12.26-2.63,18.76-2,2.17.22,4.65,1.27,7.06,1.88-1.83,1.2-3.63,2.37-5.52,3.48-3.69,2.17-7.78,3.65-11.49,5.79S97.24,68,93.56,70c-1.35.72-2.78,1.45-4.13,2.28a1.26,1.26,0,0,0-1.17-.92c-1.92,0-3.55,1.53-5.35,2-.49,0-1,.1-1.45.17h0c-.14,0-.29,0-.42.06-1.87.32-1.22,2.94.42,3.09a6.79,6.79,0,0,0,2.24-.19h.73a38.47,38.47,0,0,1-7.09,4.39,79.17,79.17,0,0,0-8.56,5.37c-3.55,2.51-7.67,6.5-12,7.75a.77.77,0,0,0-.4,1.25c-.08.1-.17.18-.25.29-.55.81.36,1.59,1.14,1.48a83.14,83.14,0,0,0,9.41-2c2.36-.64,5-2,7.53-2.91-2.08,2.63-4.48,5-6.46,7.72-2.59,3.6-5.59,6.92-8.08,10.59a1.28,1.28,0,0,0,1.09,1.91,9.57,9.57,0,0,0,1.77-.34c-4.11,5-8.24,10.13-11.88,15.46a1,1,0,0,0,0,1.32h0c-1.28.58-.37,2.65,1,2.25a42.48,42.48,0,0,0,5.62-2.25C56.1,133.91,53.56,139,54,144.41A1.68,1.68,0,0,0,55.22,146c2.74.63,3.37-2.48,4.26-4.4a72.47,72.47,0,0,1,4-6.88c.78-1.3,1.43-3,2.29-4.41a17.09,17.09,0,0,0-.26,3.72c.15,1.39,1.94,2.55,3.06,1.27,2.12-2.43,1.84-6.61,2.42-9.64a45.51,45.51,0,0,1,5.27-15c1.89-3.17,3.22-6.64,5.17-9.77,1.23-2,2.57-4,3.82-6,0,2.86.14,5.62,2,8.45,1.16,1.81,2.85,3.11,3.86,5,1.44,2.67,1.26,7.72,1.6,10.77a1.61,1.61,0,0,0,3.21,0,37.26,37.26,0,0,0,.21-5.07.58.58,0,0,0,.13-.23c1.39-4.5,2.49-7.87.45-12.12-2.49-5.18-4.21-10.12-1.09-15.68,2.14-3.81,6.77-6.92,10.24-9.49,1.63-1.21,5.44-5,7.82-6.17.21,1.66-.18,3.78.19,5.24a11.87,11.87,0,0,0,2.1,4.33c1.62,2,3,3.36,3.78,6,.61,2.22.83,4.62,1.36,6.87.46,2,3.48,1.52,3.47-.47,0-.28,0-.56,0-.84a1,1,0,0,0,.1-.17c.92-2.5,2.65-4.58,2.29-7.45s-1.73-5.75-2.41-8.53c-.42-1.71-1-4.59-.25-6.1,1-1.88,4.47-3.28,6.33-4.21,4.72-2.37,7.63.14,11.57,2.72a2,2,0,0,0,2.94-1.2c.75-2.28-1.49-3.94-3.31-5.7,4.68.47,10.27,1.46,12.53,5.17s4.81,9.07,4.8,13.59C159.09,83,158.43,86.34,155.76,88.57Z" transform="translate(-41.49 -27.38)"/></svg>